{
	"asset":{
		"generator":"Khronos glTF Blender I/O v5.0.21",
		"version":"2.0"
	},
	"scene":0,
	"scenes":[
		{
			"name":"Scene",
			"nodes":[
				0
			]
		}
	],
	"nodes":[
		{
			"mesh":0,
			"name":"Zone_Label_6_fontobj",
			"rotation":[
				0.5,
				-0.5,
				0.5,
				0.5
			]
		}
	],
	"materials":[
		{
			"doubleSided":true,
			"name":"Text",
			"pbrMetallicRoughness":{
				"baseColorFactor":[
					0,
					0,
					0,
					1
				],
				"metallicFactor":0,
				"roughnessFactor":0.5
			}
		},
		{
			"doubleSided":true,
			"name":"Start",
			"pbrMetallicRoughness":{
				"baseColorFactor":[
					1,
					0,
					0,
					1
				],
				"metallicFactor":0,
				"roughnessFactor":0.5
			}
		},
		{
			"doubleSided":true,
			"name":"Border",
			"pbrMetallicRoughness":{
				"baseColorFactor":[
					0,
					0,
					1,
					1
				],
				"metallicFactor":0,
				"roughnessFactor":0.5
			}
		},
		{
			"doubleSided":true,
			"name":"Safe",
			"pbrMetallicRoughness":{
				"baseColorFactor":[
					0,
					0.20000000298023224,
					1,
					1
				],
				"metallicFactor":0,
				"roughnessFactor":0.5
			}
		},
		{
			"alphaMode":"BLEND",
			"doubleSided":true,
			"name":"Path",
			"pbrMetallicRoughness":{
				"baseColorFactor":[
					0.10000000149011612,
					0.6000000238418579,
					0.10000000149011612,
					0.5
				],
				"metallicFactor":0,
				"roughnessFactor":0.5
			}
		},
		{
			"alphaMode":"BLEND",
			"doubleSided":true,
			"name":"Fan",
			"pbrMetallicRoughness":{
				"baseColorFactor":[
					0.8999999761581421,
					0.800000011920929,
					0.6000000238418579,
					0.15000000596046448
				],
				"metallicFactor":0,
				"roughnessFactor":0.5
			}
		}
	],
	"meshes":[
		{
			"name":"Zone_Label_6_font.005",
			"primitives":[
				{
					"attributes":{
						"POSITION":0,
						"NORMAL":1,
						"TEXCOORD_0":2
					},
					"indices":3,
					"material":0
				},
				{
					"attributes":{
						"POSITION":4,
						"NORMAL":5,
						"TEXCOORD_0":6
					},
					"indices":7,
					"material":1
				},
				{
					"attributes":{
						"POSITION":8,
						"NORMAL":9,
						"TEXCOORD_0":10
					},
					"indices":11,
					"material":2
				},
				{
					"attributes":{
						"POSITION":12,
						"NORMAL":13,
						"TEXCOORD_0":14
					},
					"indices":15,
					"material":3
				},
				{
					"attributes":{
						"POSITION":16,
						"NORMAL":17,
						"TEXCOORD_0":18
					},
					"indices":19,
					"material":4
				},
				{
					"attributes":{
						"POSITION":20,
						"NORMAL":21,
						"TEXCOORD_0":22
					},
					"indices":23,
					"material":5
				}
			]
		}
	],
	"accessors":[
		{
			"bufferView":0,
			"componentType":5126,
			"count":3667,
			"max":[
				57.82178497314453,
				-7.1428680419921875,
				-0.6657961010932922
			],
			"min":[
				-54.195701599121094,
				-92.85716247558594,
				-3.3257997035980225
			],
			"type":"VEC3"
		},
		{
			"bufferView":1,
			"componentType":5126,
			"count":3667,
			"type":"VEC3"
		},
		{
			"bufferView":2,
			"componentType":5126,
			"count":3667,
			"type":"VEC2"
		},
		{
			"bufferView":3,
			"componentType":5123,
			"count":8988,
			"type":"SCALAR"
		},
		{
			"bufferView":4,
			"componentType":5126,
			"count":4,
			"max":[
				7.668209075927734,
				14.937171936035156,
				-0.09999999403953552
			],
			"min":[
				-7.331791400909424,
				-0.062835693359375,
				-0.10000064969062805
			],
			"type":"VEC3"
		},
		{
			"bufferView":5,
			"componentType":5126,
			"count":4,
			"type":"VEC3"
		},
		{
			"bufferView":6,
			"componentType":5126,
			"count":4,
			"type":"VEC2"
		},
		{
			"bufferView":7,
			"componentType":5123,
			"count":6,
			"type":"SCALAR"
		},
		{
			"bufferView":8,
			"componentType":5126,
			"count":1548,
			"max":[
				49.43815231323242,
				-11.70361328125,
				-0.1999967098236084
			],
			"min":[
				-49.43815994262695,
				-86.21426391601562,
				-0.19999997317790985
			],
			"type":"VEC3"
		},
		{
			"bufferView":9,
			"componentType":5126,
			"count":1548,
			"type":"VEC3"
		},
		{
			"bufferView":10,
			"componentType":5126,
			"count":1548,
			"type":"VEC2"
		},
		{
			"bufferView":11,
			"componentType":5123,
			"count":4608,
			"type":"SCALAR"
		},
		{
			"bufferView":12,
			"componentType":5126,
			"count":198,
			"max":[
				51.928916931152344,
				-20.944717407226562,
				-0.11999686062335968
			],
			"min":[
				-52.151763916015625,
				-70.63766479492188,
				-0.11999902874231339
			],
			"type":"VEC3"
		},
		{
			"bufferView":13,
			"componentType":5126,
			"count":198,
			"type":"VEC3"
		},
		{
			"bufferView":14,
			"componentType":5126,
			"count":198,
			"type":"VEC2"
		},
		{
			"bufferView":15,
			"componentType":5123,
			"count":576,
			"type":"SCALAR"
		},
		{
			"bufferView":16,
			"componentType":5126,
			"count":8,
			"max":[
				60.227447509765625,
				2.0007781982421875,
				-0.04999641701579094
			],
			"min":[
				-60.251861572265625,
				-81.93135833740234,
				-0.050000082701444626
			],
			"type":"VEC3"
		},
		{
			"bufferView":17,
			"componentType":5126,
			"count":8,
			"type":"VEC3"
		},
		{
			"bufferView":18,
			"componentType":5126,
			"count":8,
			"type":"VEC2"
		},
		{
			"bufferView":19,
			"componentType":5123,
			"count":12,
			"type":"SCALAR"
		},
		{
			"bufferView":20,
			"componentType":5126,
			"count":130,
			"max":[
				57.34334182739258,
				0,
				4.371138857095502e-06
			],
			"min":[
				-57.34334945678711,
				-100,
				0
			],
			"type":"VEC3"
		},
		{
			"bufferView":21,
			"componentType":5126,
			"count":130,
			"type":"VEC3"
		},
		{
			"bufferView":22,
			"componentType":5126,
			"count":130,
			"type":"VEC2"
		},
		{
			"bufferView":23,
			"componentType":5123,
			"count":384,
			"type":"SCALAR"
		}
	],
	"bufferViews":[
		{
			"buffer":0,
			"byteLength":44004,
			"byteOffset":0,
			"target":34962
		},
		{
			"buffer":0,
			"byteLength":44004,
			"byteOffset":44004,
			"target":34962
		},
		{
			"buffer":0,
			"byteLength":29336,
			"byteOffset":88008,
			"target":34962
		},
		{
			"buffer":0,
			"byteLength":17976,
			"byteOffset":117344,
			"target":34963
		},
		{
			"buffer":0,
			"byteLength":48,
			"byteOffset":135320,
			"target":34962
		},
		{
			"buffer":0,
			"byteLength":48,
			"byteOffset":135368,
			"target":34962
		},
		{
			"buffer":0,
			"byteLength":32,
			"byteOffset":135416,
			"target":34962
		},
		{
			"buffer":0,
			"byteLength":12,
			"byteOffset":135448,
			"target":34963
		},
		{
			"buffer":0,
			"byteLength":18576,
			"byteOffset":135460,
			"target":34962
		},
		{
			"buffer":0,
			"byteLength":18576,
			"byteOffset":154036,
			"target":34962
		},
		{
			"buffer":0,
			"byteLength":12384,
			"byteOffset":172612,
			"target":34962
		},
		{
			"buffer":0,
			"byteLength":9216,
			"byteOffset":184996,
			"target":34963
		},
		{
			"buffer":0,
			"byteLength":2376,
			"byteOffset":194212,
			"target":34962
		},
		{
			"buffer":0,
			"byteLength":2376,
			"byteOffset":196588,
			"target":34962
		},
		{
			"buffer":0,
			"byteLength":1584,
			"byteOffset":198964,
			"target":34962
		},
		{
			"buffer":0,
			"byteLength":1152,
			"byteOffset":200548,
			"target":34963
		},
		{
			"buffer":0,
			"byteLength":96,
			"byteOffset":201700,
			"target":34962
		},
		{
			"buffer":0,
			"byteLength":96,
			"byteOffset":201796,
			"target":34962
		},
		{
			"buffer":0,
			"byteLength":64,
			"byteOffset":201892,
			"target":34962
		},
		{
			"buffer":0,
			"byteLength":24,
			"byteOffset":201956,
			"target":34963
		},
		{
			"buffer":0,
			"byteLength":1560,
			"byteOffset":201980,
			"target":34962
		},
		{
			"buffer":0,
			"byteLength":1560,
			"byteOffset":203540,
			"target":34962
		},
		{
			"buffer":0,
			"byteLength":1040,
			"byteOffset":205100,
			"target":34962
		},
		{
			"buffer":0,
			"byteLength":768,
			"byteOffset":206140,
			"target":34963
		}
	],
	"buffers":[
		{
			"byteLength":206908,
			"uri":"biyor.bin"
		}
	]
}
